<?xml version="1.0" standalone="no"?>
<!DOCTYPE svg PUBLIC "-//W3C//DTD SVG 20010904//EN"
 "http://www.w3.org/TR/2001/REC-SVG-20010904/DTD/svg10.dtd">
<svg version="1.0" xmlns="http://www.w3.org/2000/svg"
 width="1200.000000pt" height="1200.000000pt" viewBox="0 0 1200.000000 1200.000000"
 preserveAspectRatio="xMidYMid meet">

<g transform="translate(0.000000,1200.000000) scale(0.100000,-0.100000)"
fill="#000000" stroke="none">
<path d="M5872 11813 c70 -2 187 -2 260 0 73 1 16 3 -127 3 -143 0 -203 -2
-133 -3z"/>
<path d="M5598 11803 c12 -2 30 -2 40 0 9 3 -1 5 -23 4 -22 0 -30 -2 -17 -4z"/>
<path d="M6337 11803 c18 -2 50 -2 70 0 21 2 7 4 -32 4 -38 0 -55 -2 -38 -4z"/>
<path d="M5473 11793 c9 -2 23 -2 30 0 6 3 -1 5 -18 5 -16 0 -22 -2 -12 -5z"/>
<path d="M6483 11793 c15 -2 37 -2 50 0 12 2 0 4 -28 4 -27 0 -38 -2 -22 -4z"/>
<path d="M6588 11783 c12 -2 32 -2 45 0 12 2 2 4 -23 4 -25 0 -35 -2 -22 -4z"/>
<path d="M6678 11773 c12 -2 32 -2 45 0 12 2 2 4 -23 4 -25 0 -35 -2 -22 -4z"/>
<path d="M6763 11763 c9 -2 25 -2 35 0 9 3 1 5 -18 5 -19 0 -27 -2 -17 -5z"/>
<path d="M6833 11753 c9 -2 25 -2 35 0 9 3 1 5 -18 5 -19 0 -27 -2 -17 -5z"/>
<path d="M6925 11739 c51 -10 92 -10 50 1 -16 4 -43 8 -60 8 -25 0 -24 -2 10
-9z"/>
<path d="M7160 11695 c1528 -323 2829 -1205 3685 -2500 813 -1229 1127 -2723
880 -4189 -310 -1834 -1493 -3419 -3170 -4246 -247 -122 -458 -208 -735 -301
-244 -81 -296 -104 -105 -45 638 196 1239 501 1771 899 1290 963 2124 2407
2308 3997 28 241 36 388 36 680 0 387 -20 633 -81 990 -243 1434 -1024 2729
-2191 3632 -609 472 -1333 826 -2093 1023 -178 46 -409 96 -441 94 -11 0 51
-16 136 -34z"/>
<path d="M5625 11624 c-22 -2 -96 -9 -165 -14 -969 -83 -1941 -444 -2752
-1023 -752 -537 -1363 -1250 -1771 -2067 -315 -630 -493 -1235 -573 -1950 -22
-197 -30 -755 -15 -976 121 -1715 1005 -3265 2423 -4250 1327 -922 2995 -1226
4575 -834 836 207 1594 595 2273 1161 155 129 513 484 650 644 713 835 1170
1861 1309 2937 36 276 45 419 45 728 0 309 -10 474 -45 746 -126 984 -524
1935 -1141 2728 -836 1075 -2045 1820 -3368 2075 -387 75 -581 93 -1030 96
-206 1 -393 1 -415 -1z m417 -361 c68 -20 131 -84 154 -155 13 -42 18 -105 21
-299 6 -275 -4 -344 -56 -409 -63 -78 -145 -100 -378 -100 l-150 0 -6 308 c-4
169 -7 389 -7 489 l0 182 88 4 c130 6 278 -3 334 -20z m-653 -505 c38 -265 67
-484 66 -486 -4 -5 -217 -34 -220 -30 -4 4 -135 936 -135 959 0 12 22 19 108
30 59 8 108 14 110 13 2 -1 34 -220 71 -486z m1461 459 l125 -22 6 -225 c3
-124 8 -349 9 -500 3 -234 2 -275 -11 -273 -44 5 -167 25 -181 29 -16 5 -18
19 -18 108 l0 103 -91 15 -90 15 -13 -31 c-7 -17 -23 -62 -36 -99 -22 -63 -26
-67 -49 -63 -15 3 -59 10 -99 16 -47 8 -72 16 -69 24 2 6 79 205 170 441 91
237 171 442 176 458 12 32 10 32 171 4z m-2089 -112 c46 -24 87 -82 109 -152
16 -51 18 -68 8 -74 -12 -8 -181 -52 -194 -51 -4 1 -16 29 -28 64 -22 66 -35
76 -81 64 -34 -9 -39 -37 -19 -105 25 -91 46 -107 194 -156 186 -61 217 -87
255 -208 28 -87 32 -162 11 -210 -54 -126 -315 -218 -443 -156 -50 24 -78 60
-103 132 -37 110 -43 100 70 130 54 15 103 27 109 27 6 0 17 -22 25 -49 23
-79 32 -91 71 -91 50 0 69 24 62 81 -12 97 -43 128 -176 173 -123 42 -197 82
-226 120 -30 40 -75 181 -75 235 1 77 59 155 152 202 90 46 215 56 279 24z
m2976 -120 c80 -36 120 -72 149 -131 40 -82 32 -152 -46 -379 -80 -233 -118
-311 -174 -363 -87 -80 -169 -80 -405 2 -116 40 -155 57 -153 69 2 12 284 818
312 891 l9 26 128 -46 c70 -24 152 -56 180 -69z m-3795 -165 c100 -28 199
-240 158 -340 -7 -16 -32 -48 -57 -71 -24 -22 -36 -38 -26 -35 92 27 163 9
212 -53 30 -37 151 -283 151 -306 0 -6 -44 -32 -99 -57 l-99 -46 -72 157 c-39
86 -79 164 -87 174 -9 9 -28 17 -43 17 -38 0 -90 -20 -90 -34 0 -7 38 -93 84
-192 l85 -179 -91 -42 c-50 -24 -94 -43 -97 -43 -8 0 -416 868 -416 883 0 12
288 145 350 162 62 17 90 18 137 5z m-732 -392 l44 -61 -24 -16 c-13 -9 -55
-38 -92 -64 l-69 -48 67 -97 c37 -53 68 -98 69 -99 1 -2 40 24 87 57 l85 60
42 -59 c22 -33 41 -62 41 -64 0 -3 -36 -31 -80 -62 -44 -31 -80 -59 -80 -62 0
-6 70 -110 131 -195 l26 -37 100 69 100 69 42 -61 c34 -50 40 -63 29 -74 -26
-24 -352 -247 -364 -248 -18 -2 -568 794 -556 806 13 13 346 246 353 247 3 1
26 -27 49 -61z m5906 -154 c46 -36 84 -68 84 -70 0 -2 -109 -147 -243 -321
-134 -175 -246 -323 -250 -329 -4 -7 32 -42 93 -89 55 -42 100 -78 100 -81 0
-12 -84 -109 -94 -108 -19 2 -371 276 -370 289 1 12 583 775 591 775 2 0 42
-30 89 -66z m-2666 -169 c618 -76 1143 -255 1665 -566 299 -178 519 -352 791
-623 223 -223 365 -394 519 -626 182 -274 324 -549 433 -841 83 -219 125 -370
197 -695 4 -20 -1 -23 -63 -34 -37 -6 -77 -14 -89 -16 -19 -5 -22 0 -33 53
-252 1252 -1088 2308 -2246 2837 -1135 518 -2468 467 -3554 -136 -356 -198
-639 -415 -930 -714 -532 -547 -890 -1224 -1041 -1969 -17 -82 -32 -151 -34
-153 -1 -1 -41 7 -88 19 -67 16 -84 24 -81 37 2 10 15 76 29 147 160 798 573
1553 1167 2131 694 675 1580 1078 2558 1163 152 14 650 5 800 -14z m-3581
-438 c144 -225 261 -412 261 -417 0 -11 -137 -143 -159 -153 -14 -7 -103 53
-419 280 -221 158 -402 291 -402 294 0 3 36 38 79 78 l80 72 283 -234 c156
-129 286 -232 290 -230 4 2 -90 139 -209 305 l-216 301 69 62 c38 35 72 60 76
57 4 -4 124 -191 267 -415z m6766 176 l79 -73 -21 -22 c-33 -38 -583 -631
-619 -667 l-33 -34 -78 73 c-43 40 -78 77 -78 82 0 11 658 719 666 716 3 -2
41 -36 84 -75z m415 -433 c164 -205 193 -284 140 -378 -24 -43 -118 -124 -165
-142 -42 -16 -107 -12 -149 9 -32 17 -37 17 -31 4 18 -49 24 -102 14 -139 -22
-81 -195 -214 -278 -214 -85 1 -145 50 -308 251 l-102 126 377 306 c207 168
383 305 390 304 7 -1 57 -58 112 -127z m-7673 -232 c193 -164 355 -303 358
-308 7 -11 -98 -145 -127 -163 -12 -8 -92 55 -374 293 -197 166 -365 309 -373
316 -11 10 -2 26 59 98 62 73 76 84 89 73 8 -6 174 -146 368 -309z m5057 -79
c10 -95 7 -500 -4 -692 -89 -1472 -580 -2479 -1410 -2897 l-81 -41 -99 52
c-902 463 -1455 1569 -1540 3079 -11 200 -13 446 -4 514 l7 46 1562 0 1562 0
7 -61z m-5336 -284 c210 -137 381 -255 382 -260 0 -7 -133 -217 -155 -243 -2
-2 -178 69 -391 157 -213 89 -392 160 -398 158 -5 -2 143 -99 330 -217 186
-117 345 -219 353 -226 11 -10 6 -24 -33 -83 -25 -39 -50 -71 -54 -71 -7 0
-803 520 -819 534 -2 2 144 224 157 239 5 6 342 -129 778 -310 6 -3 12 -1 12
4 0 5 -153 106 -341 224 -188 118 -343 219 -346 226 -2 6 17 43 43 82 l47 71
27 -17 c15 -10 199 -130 408 -268z m8476 -136 c83 -149 116 -229 116 -284 0
-81 -52 -145 -164 -201 -105 -52 -168 -46 -242 27 l-41 41 14 -56 c18 -71 5
-123 -42 -170 -31 -31 -302 -194 -308 -185 -15 20 -108 192 -105 194 2 2 68
40 148 85 80 45 153 89 163 97 22 20 21 68 -1 110 l-17 31 -178 -99 c-98 -55
-182 -97 -187 -94 -16 10 -103 179 -94 182 5 2 198 109 429 238 231 129 423
231 426 227 4 -4 41 -68 83 -143z m-9069 -584 c171 -69 329 -137 353 -151 147
-86 176 -190 103 -366 -53 -126 -132 -197 -221 -198 -64 0 -148 28 -474 161
-177 72 -326 134 -332 137 -8 5 1 38 29 107 22 55 41 101 42 103 1 1 162 -63
358 -143 404 -165 427 -170 453 -108 32 75 36 72 -438 264 -169 68 -308 129
-308 135 0 6 12 39 26 75 56 138 51 130 76 120 13 -5 163 -66 333 -136z m9469
-245 c42 -110 76 -204 76 -209 0 -4 -24 -17 -52 -29 -29 -11 -60 -23 -69 -26
-12 -5 -22 9 -44 66 -15 40 -34 87 -41 105 l-12 32 -109 -41 c-59 -23 -110
-42 -112 -44 -1 -1 11 -40 28 -86 17 -46 32 -89 33 -97 3 -13 -98 -61 -127
-61 -5 0 -25 42 -44 93 -19 50 -35 93 -36 95 -2 2 -257 -97 -263 -102 -1 -2
15 -52 37 -111 23 -59 39 -111 36 -115 -8 -13 -127 -52 -135 -43 -10 10 -160
404 -160 419 0 10 876 351 906 353 6 1 46 -89 88 -199z m-236 -1287 c68 -116
127 -277 153 -423 14 -78 20 -442 7 -455 -4 -4 -89 -24 -190 -45 -668 -139
-1327 -353 -1888 -615 -345 -161 -689 -364 -946 -560 l-99 -75 -54 107 c-141
283 -185 411 -257 751 l-18 83 30 25 c741 622 1722 1057 2759 1224 146 23 447
59 456 54 4 -2 25 -34 47 -71z m-9422 31 c1153 -197 2247 -627 2983 -1172
l114 -84 -7 -76 c-13 -150 -67 -363 -143 -557 -44 -111 -163 -357 -172 -353
-3 2 -98 64 -211 139 -476 315 -913 564 -1245 709 -268 117 -669 239 -1100
335 -224 49 -515 105 -550 105 -13 0 -26 7 -29 16 -11 30 -6 279 9 381 18 130
57 284 100 394 40 103 82 189 94 189 4 0 75 -11 157 -26z m9350 -1281 c-234
-358 -454 -753 -576 -1035 -19 -43 -37 -78 -41 -78 -10 0 -92 226 -132 370
-60 208 -98 401 -113 571 l-7 77 99 30 c240 74 786 214 861 221 7 1 -34 -70
-91 -156z m-8931 -7 c99 -25 227 -60 285 -79 98 -30 105 -35 111 -62 37 -172
-51 -522 -224 -897 l-43 -92 -33 95 c-112 314 -344 712 -610 1047 -42 53 -80
102 -84 108 -8 14 345 -57 598 -120z m4545 -211 c266 -42 490 -123 637 -231
l53 -39 0 -523 0 -522 -57 28 c-111 56 -311 132 -449 170 -422 119 -814 118
-1174 -5 -103 -35 -278 -116 -332 -155 l-28 -19 0 563 0 564 53 31 c130 79
315 124 652 157 101 10 545 -3 645 -19z m2313 -472 c15 -37 26 -67 24 -68 -8
-6 -460 -115 -464 -112 -7 8 382 246 403 247 6 0 23 -30 37 -67z m-6299 -85
c99 -256 221 -486 392 -743 231 -347 487 -629 809 -890 608 -493 1366 -797
2150 -865 175 -14 538 -12 716 5 1315 126 2470 893 3110 2065 72 133 101 194
180 385 32 77 60 133 63 125 2 -8 21 -72 41 -142 l38 -126 -91 -184 c-275
-560 -654 -1032 -1138 -1418 -648 -517 -1412 -820 -2252 -891 -207 -17 -661
-6 -862 21 -900 121 -1707 510 -2344 1130 -363 353 -613 695 -838 1148 l-111
223 44 130 c24 71 46 129 49 129 3 0 23 -46 44 -102z m1326 -90 c44 -28 65
-46 50 -43 -163 34 -394 85 -397 89 -2 2 10 33 28 69 l32 65 106 -65 c58 -36
140 -88 181 -115z m954 -58 l175 -135 1 -424 0 -425 30 29 29 28 30 -24 c60
-48 450 -394 450 -400 1 -11 -236 39 -365 76 -350 100 -602 237 -884 478 -191
165 -687 676 -669 691 9 7 724 -155 745 -169 13 -8 27 -15 32 -15 11 0 114
181 184 323 29 59 56 106 59 105 4 -2 86 -64 183 -138z m3031 -55 c54 -104
103 -196 111 -204 11 -12 17 -10 41 10 23 19 111 44 406 118 208 51 380 91
384 88 8 -9 -124 -180 -225 -293 -389 -433 -968 -767 -1565 -904 -54 -13 -100
-20 -103 -18 -2 3 84 81 193 173 109 93 208 177 221 189 22 20 24 20 53 4 l29
-17 0 413 0 413 133 84 c72 45 150 96 171 111 22 16 43 27 47 26 4 -2 51 -88
104 -193z m-2055 -503 c0 -28 -58 -682 -63 -711 -1 -9 -115 85 -274 225 l-271
239 28 25 c84 74 287 172 455 220 125 36 125 36 125 2z m984 -62 c83 -28 205
-77 270 -108 l119 -57 -244 -208 c-204 -175 -245 -206 -251 -190 -3 10 -16
133 -28 273 -11 140 -23 274 -27 298 -3 23 -2 42 2 42 4 0 76 -23 159 -50z
m2291 -1805 c171 -179 311 -330 313 -335 3 -9 -140 -110 -156 -110 -5 0 -37
33 -72 74 l-63 74 -73 -49 -73 -49 39 -86 c22 -47 40 -90 40 -95 0 -15 -140
-103 -149 -93 -4 5 -77 173 -161 374 -84 201 -168 400 -186 443 l-33 77 112
75 112 75 20 -24 c11 -13 160 -171 330 -351z m-5225 305 c72 -36 152 -107 170
-150 20 -48 8 -131 -30 -205 -18 -36 -37 -68 -41 -71 -8 -5 -130 66 -158 92
-12 11 -10 19 11 56 38 65 42 94 18 118 -27 27 -71 26 -97 -2 -41 -44 -303
-482 -309 -516 -6 -29 -3 -39 16 -54 12 -10 33 -18 45 -18 25 0 74 49 100 100
9 17 18 30 20 30 3 0 43 -23 89 -52 l85 -52 -22 -39 c-32 -58 -101 -132 -141
-151 -19 -9 -54 -16 -78 -16 -87 0 -254 104 -295 184 -23 45 -13 147 22 216
29 58 172 295 238 395 116 176 208 210 357 135z m4524 -694 c119 -233 216
-428 216 -433 0 -10 -177 -99 -184 -92 -8 8 -426 849 -426 857 0 7 156 90 172
91 4 1 104 -190 222 -423z m-3843 330 c72 -30 142 -82 163 -125 41 -82 28
-148 -86 -434 -132 -331 -174 -388 -294 -395 -104 -7 -253 56 -307 129 -30 42
-38 106 -22 184 15 69 144 404 196 508 35 69 93 135 134 154 43 20 138 10 216
-21z m3182 -160 c44 -18 81 -64 107 -133 43 -113 39 -181 -14 -238 -30 -32
-31 -35 -12 -35 42 0 97 -22 131 -51 35 -31 64 -95 91 -201 26 -101 -14 -181
-116 -233 -55 -28 -327 -122 -332 -115 -3 3 -74 208 -160 455 -120 348 -152
452 -142 458 7 4 80 30 161 57 158 53 226 62 286 36z m-2610 -55 c43 -10 80
-21 83 -24 3 -3 -33 -177 -80 -387 -47 -211 -86 -389 -86 -396 0 -15 2 -15
131 -44 l95 -21 -15 -69 c-11 -50 -20 -70 -32 -70 -18 0 -409 87 -414 92 -2 2
32 163 75 358 135 599 130 580 148 580 9 0 52 -9 95 -19z m1967 -73 c0 -2 29
-217 64 -478 35 -261 63 -476 62 -477 -1 -2 -38 -8 -81 -14 -54 -7 -80 -7 -84
0 -4 6 -29 178 -55 383 -27 205 -53 377 -58 383 -4 5 -8 -54 -8 -130 0 -77 -3
-258 -7 -402 l-6 -261 -31 -6 c-17 -3 -58 -8 -91 -12 l-60 -6 -99 374 c-96
362 -115 425 -116 384 0 -10 23 -187 50 -393 28 -207 49 -377 47 -379 -5 -5
-150 -25 -154 -21 -4 4 -131 951 -128 955 5 6 276 38 279 33 2 -3 43 -155 92
-338 48 -183 91 -330 94 -327 3 3 7 162 10 352 l5 347 115 16 c117 17 160 21
160 17z m-1117 -58 c61 -18 114 -73 134 -139 29 -100 2 -598 -38 -706 -39
-104 -111 -141 -264 -133 -176 10 -244 69 -260 228 -8 87 21 520 40 594 35
133 109 181 270 171 44 -2 97 -9 118 -15z"/>
<path d="M5850 10927 c0 -112 3 -265 7 -340 l6 -137 26 0 c43 0 94 32 102 63
4 16 5 152 1 303 -7 274 -7 276 -31 295 -15 12 -39 19 -67 19 l-44 0 0 -203z"/>
<path d="M6724 10827 l-72 -215 52 -7 c28 -4 58 -9 67 -11 15 -4 18 17 24 198
4 112 6 214 4 227 -3 14 -32 -62 -75 -192z"/>
<path d="M7481 10559 c-62 -176 -110 -323 -107 -326 3 -3 31 -6 62 -7 49 -1
59 2 75 24 24 33 189 502 189 539 0 15 -8 35 -17 43 -17 14 -77 48 -86 48 -2
0 -55 -144 -116 -321z"/>
<path d="M3733 10628 c-13 -6 -23 -15 -23 -19 0 -18 109 -239 118 -239 5 0 24
10 43 23 27 18 35 30 37 60 4 42 -33 132 -67 166 -23 23 -71 27 -108 9z"/>
<path d="M9857 9208 l-99 -80 33 -34 c46 -48 82 -46 149 7 78 62 88 106 37
163 l-22 25 -98 -81z"/>
<path d="M9535 8949 c-60 -49 -111 -93 -113 -98 -6 -17 78 -81 107 -81 46 0
165 96 176 143 5 19 0 39 -19 71 -14 25 -30 47 -34 49 -4 2 -56 -36 -117 -84z"/>
<path d="M4464 8913 c-10 -79 2 -397 21 -573 63 -579 234 -1208 440 -1621 136
-272 268 -455 479 -664 154 -153 273 -246 421 -329 122 -68 115 -69 235 21
130 96 346 305 453 438 320 398 536 889 651 1482 64 330 94 743 77 1072 -6
112 -11 210 -11 217 0 12 -226 14 -1379 14 l-1380 0 -7 -57z m1274 -317 c35
-8 66 -17 70 -21 4 -4 8 -180 10 -392 l3 -386 -38 7 c-225 39 -422 47 -528 21
-33 -8 -63 -14 -66 -15 -3 0 -9 129 -13 288 -4 158 -9 315 -12 349 l-6 61 38
20 c50 25 155 59 219 71 76 14 252 12 323 -3z m640 -11 c34 -8 89 -28 122 -45
l60 -30 -1 -93 c-1 -50 -6 -209 -13 -352 -9 -222 -13 -259 -26 -257 -157 36
-310 42 -494 17 -61 -8 -112 -13 -114 -10 -2 2 -1 175 3 384 l7 379 27 7 c96
26 316 26 429 0z m-1294 -467 c15 -227 29 -414 30 -415 0 -1 39 10 86 25 79
24 99 26 285 26 175 1 211 -2 288 -21 l87 -23 83 21 c55 14 130 22 227 26 157
6 248 -4 368 -39 40 -11 74 -19 76 -17 3 2 14 171 26 374 25 454 25 455 50
455 18 0 19 -6 14 -107 -3 -60 -11 -265 -19 -456 -7 -192 -15 -350 -17 -352
-2 -2 -37 6 -78 19 -244 78 -499 80 -666 7 -41 -19 -43 -19 -100 0 -197 65
-486 66 -677 2 -31 -11 -57 -19 -58 -19 0 1 -20 201 -44 446 -43 454 -43 459
-5 460 13 0 20 -60 44 -412z m926 -1958 l0 -250 -70 0 -70 0 0 234 0 234 63
15 c34 8 65 15 70 16 4 0 7 -111 7 -249z"/>
<path d="M10337 8504 l-118 -66 24 -32 c13 -17 36 -38 50 -46 24 -13 30 -12
88 15 73 35 119 75 119 104 0 22 -30 91 -39 91 -3 0 -59 -30 -124 -66z"/>
<path d="M10482 6397 c-18 -5 -46 -25 -62 -44 -26 -29 -30 -42 -30 -91 0 -64
21 -116 60 -144 14 -10 64 -25 116 -33 115 -18 121 -21 139 -56 38 -72 4 -151
-70 -165 -59 -11 -87 4 -115 62 -22 45 -28 49 -50 44 -31 -8 -30 -35 3 -94 29
-53 77 -78 138 -73 133 11 196 105 159 238 -18 64 -53 86 -165 104 -55 9 -110
23 -122 31 -28 18 -47 83 -34 118 13 34 53 58 97 59 36 1 59 -17 89 -68 8 -13
17 -16 33 -11 27 9 28 31 2 73 -35 58 -106 77 -188 50z"/>
<path d="M10233 6323 c-13 -3 -23 -12 -23 -21 0 -21 137 -543 144 -550 3 -3
19 -1 34 4 l29 9 -75 283 c-41 155 -78 281 -81 281 -3 -1 -16 -4 -28 -6z"/>
<path d="M9978 6252 c-86 -26 -159 -50 -163 -53 -3 -4 -3 -18 0 -32 l7 -25 61
19 c34 10 67 19 73 19 6 0 44 -112 84 -250 41 -137 77 -250 81 -250 4 0 19 4
32 9 l25 10 -74 251 c-41 138 -74 252 -74 254 0 1 24 9 54 16 73 17 80 23 72
54 -3 14 -10 26 -14 25 -4 0 -78 -21 -164 -47z"/>
<path d="M9638 6148 c-26 -9 -28 -14 -28 -66 0 -80 28 -544 33 -549 2 -2 16 1
31 7 l27 10 -6 88 -7 87 84 28 c46 15 87 27 90 27 4 0 26 -32 50 -70 40 -66
45 -71 72 -65 16 3 31 7 34 9 6 7 -332 506 -343 505 -5 0 -22 -5 -37 -11z
m116 -191 c42 -65 76 -120 76 -122 0 -5 -121 -45 -136 -45 -8 0 -14 33 -18 98
-4 53 -9 122 -13 152 -3 36 -2 52 5 45 5 -5 44 -63 86 -128z"/>
<path d="M9305 6031 c-128 -49 -150 -60 -147 -77 6 -34 18 -35 86 -10 l66 25
13 -32 c7 -18 49 -128 93 -245 77 -207 80 -212 104 -207 14 4 28 9 31 13 4 4
-33 113 -82 242 -49 129 -89 240 -89 245 0 6 27 21 60 33 61 24 65 28 54 56
-9 24 -25 20 -189 -43z"/>
<path d="M8903 5869 c-57 -22 -103 -46 -103 -53 0 -7 17 -53 38 -102 21 -49
71 -167 111 -261 l73 -173 28 15 28 15 -49 116 c-28 65 -46 120 -42 124 13 12
122 50 142 50 33 0 68 -38 110 -120 23 -44 46 -80 50 -80 4 0 22 5 40 11 32
11 32 11 13 33 -11 11 -37 53 -58 91 -49 89 -75 115 -113 115 l-31 0 20 33
c37 61 16 158 -46 206 -40 32 -94 26 -211 -20z m165 -35 c54 -38 68 -119 27
-160 -23 -23 -133 -79 -140 -72 -11 11 -75 182 -72 191 4 12 113 56 142 56 11
1 31 -6 43 -15z"/>
<path d="M8568 5714 c-71 -35 -128 -66 -128 -69 0 -6 250 -508 256 -515 3 -2
62 25 133 60 108 53 128 66 123 82 -8 33 -27 31 -121 -16 -50 -25 -94 -46 -99
-46 -4 0 -29 43 -55 95 l-47 95 95 47 c52 26 95 50 95 53 0 4 -6 15 -14 26
-14 18 -17 18 -100 -23 -48 -24 -91 -43 -96 -43 -9 0 -94 159 -88 165 2 1 46
24 98 50 52 26 96 49 98 50 2 2 -2 14 -10 28 l-13 25 -127 -64z"/>
<path d="M8145 5479 c-50 -28 -92 -53 -94 -55 -2 -2 65 -116 149 -253 l153
-251 49 28 c173 96 213 178 141 290 -32 49 -70 72 -119 72 -30 0 -35 3 -26 12
18 18 14 84 -8 127 -50 98 -113 106 -245 30z m157 -21 c29 -25 48 -63 48 -100
0 -38 -13 -52 -91 -102 l-27 -17 -51 83 c-56 91 -56 90 14 127 45 24 84 27
107 9z m146 -214 c26 -18 62 -84 62 -114 0 -12 -4 -29 -10 -39 -10 -20 -100
-81 -117 -81 -6 0 -36 41 -68 92 -51 83 -54 93 -39 102 98 60 133 68 172 40z"/>
<path d="M7922 5334 c-12 -8 -22 -19 -22 -24 0 -6 295 -431 327 -469 5 -7 53
21 53 31 0 7 -329 478 -334 478 -1 0 -12 -7 -24 -16z"/>
<path d="M7595 5070 c-20 -23 -39 2 204 -273 l164 -186 56 48 c162 141 165
145 152 169 -6 12 -17 22 -23 22 -6 0 -48 -34 -94 -75 l-82 -75 -172 195 c-95
107 -175 195 -179 195 -5 0 -16 -9 -26 -20z"/>
<path d="M1484 6381 c-59 -36 -92 -150 -63 -215 7 -14 41 -46 76 -72 35 -26
73 -58 83 -72 43 -54 7 -149 -62 -166 -79 -20 -146 49 -127 131 6 31 5 35 -19
44 -34 13 -42 3 -48 -62 -7 -71 17 -115 79 -148 122 -62 240 -3 261 132 11 68
-7 101 -95 168 -89 67 -105 91 -95 142 15 78 109 109 164 53 20 -20 26 -35 25
-66 -2 -35 1 -41 23 -46 31 -8 35 -4 40 43 14 109 -141 195 -242 134z"/>
<path d="M1899 6247 c-109 -73 -202 -396 -144 -497 46 -79 166 -102 239 -47
35 27 92 126 79 138 -5 4 -18 10 -30 14 -19 5 -25 1 -34 -22 -31 -83 -96 -120
-156 -89 -62 32 -67 113 -17 261 51 154 90 205 156 205 31 0 46 -7 70 -30 28
-28 30 -36 26 -80 -5 -47 -4 -50 23 -59 26 -9 29 -8 36 17 12 46 7 99 -13 134
-42 72 -167 101 -235 55z"/>
<path d="M2193 5886 c-55 -149 -98 -274 -94 -278 3 -4 17 -9 31 -13 25 -6 27
-1 118 247 116 317 110 293 75 306 l-29 10 -101 -272z"/>
<path d="M2444 6062 c-59 -141 -204 -505 -202 -507 2 -2 61 -26 133 -55 121
-48 130 -50 142 -34 20 27 12 36 -53 62 -32 13 -78 32 -101 42 l-42 18 40 100
41 100 96 -39 c53 -22 99 -36 103 -32 4 5 9 17 13 28 5 17 -6 24 -82 54 -48
18 -91 37 -96 42 -6 6 41 147 59 176 0 1 44 -15 95 -37 52 -22 100 -40 106
-40 17 0 36 47 21 53 -7 3 -67 28 -135 56 l-122 50 -16 -37z"/>
<path d="M2705 5684 c-66 -141 -121 -259 -123 -263 -2 -7 48 -35 53 -29 2 2
51 107 109 233 73 158 106 221 106 200 -1 -16 -7 -131 -15 -255 -8 -124 -15
-235 -15 -247 0 -17 10 -27 37 -38 20 -8 37 -14 39 -13 1 2 57 120 124 263
113 240 120 260 104 272 -10 7 -23 13 -29 13 -6 0 -55 -99 -110 -220 -54 -120
-101 -218 -103 -215 -4 4 14 370 23 467 l6 57 -37 16 c-20 8 -39 15 -43 15 -3
0 -60 -115 -126 -256z"/>
<path d="M3210 5731 c-5 -11 -10 -22 -10 -25 0 -3 27 -19 60 -37 33 -17 60
-36 60 -41 0 -5 -55 -107 -121 -226 -67 -119 -124 -220 -126 -224 -2 -4 9 -14
25 -22 l29 -15 129 229 129 229 62 -35 63 -35 12 26 c6 14 9 27 7 29 -10 10
-292 166 -300 166 -4 0 -13 -9 -19 -19z"/>
<path d="M3556 5463 c-24 -38 -94 -147 -155 -243 l-111 -175 22 -18 c11 -10
25 -16 30 -15 4 2 77 112 162 245 153 240 154 243 133 258 -12 8 -25 15 -29
15 -5 0 -28 -30 -52 -67z"/>
<path d="M3627 5160 c-235 -176 -238 -178 -215 -194 12 -9 26 -16 31 -16 5 0
38 23 74 51 l64 50 70 -56 c38 -31 69 -60 69 -66 0 -6 -14 -42 -30 -81 l-31
-72 21 -20 c12 -13 23 -17 29 -11 6 6 60 131 122 279 l112 269 -27 24 c-15 12
-32 23 -39 22 -7 0 -119 -81 -250 -179z m198 -7 c-26 -60 -54 -120 -62 -136
l-14 -27 -57 46 c-31 26 -57 49 -57 51 0 7 230 182 234 178 2 -3 -18 -53 -44
-112z"/>
<path d="M5926 4773 c-3 -21 -8 -151 -12 -289 l-6 -251 30 -5 30 -4 7 253 c4
140 9 252 11 250 2 -2 44 -116 93 -253 l89 -249 37 -3 c21 -2 41 0 45 5 5 4
11 135 15 291 l7 282 -31 0 -31 0 -1 -147 c-1 -82 -4 -192 -8 -245 l-6 -96
-90 249 -90 249 -42 0 c-40 0 -41 -1 -47 -37z"/>
<path d="M5510 4768 c-69 -36 -84 -64 -88 -168 -7 -157 37 -316 104 -381 33
-32 39 -34 109 -34 79 0 108 13 149 69 54 72 16 373 -61 475 -48 63 -135 78
-213 39z m142 -58 c30 -23 54 -78 72 -169 45 -218 23 -299 -83 -304 -55 -2
-86 23 -110 88 -29 77 -54 229 -49 294 4 45 10 59 37 83 39 34 95 38 133 8z"/>
<path d="M6539 4697 c-66 -44 -100 -150 -67 -210 6 -12 44 -53 85 -92 76 -73
85 -93 63 -149 -17 -46 -46 -66 -94 -66 -80 0 -128 63 -106 139 11 40 12 37
-21 46 -23 6 -28 3 -38 -26 -29 -83 0 -157 79 -196 110 -56 218 -6 251 118 19
70 7 95 -87 184 -65 63 -84 87 -84 108 0 36 25 83 49 97 34 18 88 12 117 -14
23 -19 28 -32 29 -71 0 -40 4 -49 23 -56 19 -7 24 -4 32 17 26 67 -6 134 -80
172 -57 28 -108 28 -151 -1z"/>
<path d="M5138 4667 c-65 -23 -118 -46 -118 -52 0 -19 185 -545 192 -545 4 0
18 4 32 10 l25 9 -43 128 c-24 70 -42 131 -40 135 2 3 40 18 84 33 80 27 93
40 72 73 -7 10 -27 6 -93 -17 -46 -17 -87 -27 -90 -23 -16 19 -61 164 -53 171
5 5 47 21 94 36 47 15 86 29 88 30 5 5 -18 55 -25 54 -5 0 -61 -19 -125 -42z"/>
<path d="M8474 2068 c13 -29 52 -111 86 -183 34 -71 66 -140 71 -153 l9 -22
50 32 c27 18 50 37 50 41 0 7 -279 337 -286 337 -2 0 8 -24 20 -52z"/>
<path d="M4151 1749 c-19 -20 -213 -492 -227 -552 -12 -53 49 -102 96 -77 11
6 28 27 39 48 36 70 202 491 208 525 10 66 -71 105 -116 56z"/>
<path d="M7295 1594 c-5 -1 -22 -5 -37 -8 l-27 -6 41 -120 c37 -109 43 -120
62 -114 69 20 85 56 62 137 -23 78 -62 121 -101 111z"/>
<path d="M7392 1219 c-19 -6 -32 -15 -29 -22 2 -7 24 -68 47 -137 24 -69 44
-126 45 -128 5 -6 61 23 83 42 15 14 22 31 22 57 0 43 -33 138 -58 169 -21 24
-66 32 -110 19z"/>
<path d="M5535 1406 c-27 -27 -30 -47 -45 -303 -16 -266 -14 -329 10 -353 38
-38 97 -20 114 35 6 20 36 484 36 556 0 29 -7 47 -25 64 -30 31 -59 32 -90 1z"/>
<path d="M7515 365 c-39 -14 -40 -14 -5 -8 41 7 82 22 60 22 -8 0 -33 -7 -55
-14z"/>
<path d="M7448 343 c7 -3 16 -2 19 1 4 3 -2 6 -13 5 -11 0 -14 -3 -6 -6z"/>
<path d="M7408 333 c7 -3 16 -2 19 1 4 3 -2 6 -13 5 -11 0 -14 -3 -6 -6z"/>
<path d="M7368 323 c7 -3 16 -2 19 1 4 3 -2 6 -13 5 -11 0 -14 -3 -6 -6z"/>
<path d="M7328 313 c7 -3 16 -2 19 1 4 3 -2 6 -13 5 -11 0 -14 -3 -6 -6z"/>
<path d="M7250 300 c-20 -6 -21 -8 -5 -8 11 0 31 4 45 8 20 6 21 8 5 8 -11 0
-31 -4 -45 -8z"/>
<path d="M7188 283 c6 -2 18 -2 25 0 6 3 1 5 -13 5 -14 0 -19 -2 -12 -5z"/>
<path d="M7138 273 c6 -2 18 -2 25 0 6 3 1 5 -13 5 -14 0 -19 -2 -12 -5z"/>
<path d="M7088 263 c6 -2 18 -2 25 0 6 3 1 5 -13 5 -14 0 -19 -2 -12 -5z"/>
<path d="M7038 253 c6 -2 18 -2 25 0 6 3 1 5 -13 5 -14 0 -19 -2 -12 -5z"/>
<path d="M6978 243 c6 -2 18 -2 25 0 6 3 1 5 -13 5 -14 0 -19 -2 -12 -5z"/>
<path d="M6918 233 c6 -2 18 -2 25 0 6 3 1 5 -13 5 -14 0 -19 -2 -12 -5z"/>
<path d="M6853 223 c9 -2 23 -2 30 0 6 3 -1 5 -18 5 -16 0 -22 -2 -12 -5z"/>
<path d="M6783 213 c9 -2 23 -2 30 0 6 3 -1 5 -18 5 -16 0 -22 -2 -12 -5z"/>
<path d="M6708 203 c6 -2 18 -2 25 0 6 3 1 5 -13 5 -14 0 -19 -2 -12 -5z"/>
<path d="M6623 193 c9 -2 23 -2 30 0 6 3 -1 5 -18 5 -16 0 -22 -2 -12 -5z"/>
<path d="M6523 183 c9 -2 23 -2 30 0 6 3 -1 5 -18 5 -16 0 -22 -2 -12 -5z"/>
<path d="M6393 173 c9 -2 25 -2 35 0 9 3 1 5 -18 5 -19 0 -27 -2 -17 -5z"/>
<path d="M6203 163 c9 -2 25 -2 35 0 9 3 1 5 -18 5 -19 0 -27 -2 -17 -5z"/>
</g>
</svg>
